<mxfile host="app.diagrams.net" modified="2023-02-16T10:16:16.141Z" agent="5.0 (Windows NT 10.0; Win64; x64) AppleWebKit/537.36 (KHTML, like Gecko) Chrome/109.0.0.0 Safari/537.36" etag="AOiS8XdqZyBcLrbrfE6K" version="20.8.20" type="github">
  <diagram id="M9jGDUiDNRcZd1WNRBZr" name="Page-1">
    <mxGraphModel dx="2336" dy="1896" grid="1" gridSize="10" guides="1" tooltips="1" connect="1" arrows="1" fold="1" page="1" pageScale="1" pageWidth="850" pageHeight="1100" math="0" shadow="0">
      <root>
        <mxCell id="0" />
        <mxCell id="1" parent="0" />
        <mxCell id="IyW-SBipxfJ-EqF8rfU7-41" value="&lt;br&gt;&lt;br&gt;&lt;br&gt;&lt;br&gt;&lt;br&gt;&lt;br&gt;&lt;br&gt;&lt;br&gt;&lt;br&gt;&lt;br&gt;&lt;br&gt;&lt;span style=&quot;white-space: pre;&quot;&gt; &lt;/span&gt;&lt;span style=&quot;white-space: pre;&quot;&gt; &lt;/span&gt;&lt;br&gt;&lt;span style=&quot;white-space: pre;&quot;&gt; &lt;/span&gt;&lt;span style=&quot;white-space: pre;&quot;&gt; &lt;/span&gt;&lt;span style=&quot;white-space: pre;&quot;&gt; &lt;/span&gt;Sensor Node" style="rounded=1;whiteSpace=wrap;html=1;" parent="1" vertex="1">
          <mxGeometry x="425" y="-40" width="220" height="195" as="geometry" />
        </mxCell>
        <mxCell id="IyW-SBipxfJ-EqF8rfU7-3" value="ESP32" style="rounded=0;whiteSpace=wrap;html=1;" parent="1" vertex="1">
          <mxGeometry x="460" y="60" width="65" height="70" as="geometry" />
        </mxCell>
        <mxCell id="IyW-SBipxfJ-EqF8rfU7-12" value="" style="shape=flexArrow;endArrow=classic;startArrow=classic;html=1;rounded=0;exitX=1.027;exitY=0.088;exitDx=0;exitDy=0;exitPerimeter=0;entryX=-0.01;entryY=0.674;entryDx=0;entryDy=0;entryPerimeter=0;" parent="1" source="IyW-SBipxfJ-EqF8rfU7-66" target="IyW-SBipxfJ-EqF8rfU7-41" edge="1">
          <mxGeometry width="100" height="100" relative="1" as="geometry">
            <mxPoint x="295.49000000000024" y="227.83999999999992" as="sourcePoint" />
            <mxPoint x="370" y="90" as="targetPoint" />
          </mxGeometry>
        </mxCell>
        <mxCell id="IyW-SBipxfJ-EqF8rfU7-16" value="" style="shape=flexArrow;endArrow=classic;startArrow=classic;html=1;rounded=0;exitX=1.018;exitY=0.916;exitDx=0;exitDy=0;exitPerimeter=0;entryX=-0.014;entryY=0.469;entryDx=0;entryDy=0;entryPerimeter=0;" parent="1" source="IyW-SBipxfJ-EqF8rfU7-66" target="IyW-SBipxfJ-EqF8rfU7-57" edge="1">
          <mxGeometry width="100" height="100" relative="1" as="geometry">
            <mxPoint x="292.43000000000006" y="340.26" as="sourcePoint" />
            <mxPoint x="396.00999999999976" y="438.9000000000001" as="targetPoint" />
            <Array as="points" />
          </mxGeometry>
        </mxCell>
        <mxCell id="IyW-SBipxfJ-EqF8rfU7-23" value="" style="shape=flexArrow;endArrow=classic;startArrow=classic;html=1;rounded=0;entryX=-0.03;entryY=0.456;entryDx=0;entryDy=0;entryPerimeter=0;" parent="1" source="aDcIAIFk6YRATUNbwxnY-2" target="IyW-SBipxfJ-EqF8rfU7-66" edge="1">
          <mxGeometry width="100" height="100" relative="1" as="geometry">
            <mxPoint x="19.980019126347315" y="276.52712354967593" as="sourcePoint" />
            <mxPoint x="198.0200000000002" y="276.55999999999995" as="targetPoint" />
            <Array as="points">
              <mxPoint x="30" y="278" />
            </Array>
          </mxGeometry>
        </mxCell>
        <mxCell id="IyW-SBipxfJ-EqF8rfU7-29" value="" style="shape=image;verticalLabelPosition=bottom;labelBackgroundColor=default;verticalAlign=top;aspect=fixed;imageAspect=0;image=https://ptik.um.ac.id/wp-content/uploads/2018/03/wifi.png;rotation=0;" parent="1" vertex="1">
          <mxGeometry x="40" y="250" width="36.87" height="29" as="geometry" />
        </mxCell>
        <mxCell id="IyW-SBipxfJ-EqF8rfU7-36" style="edgeStyle=orthogonalEdgeStyle;rounded=0;orthogonalLoop=1;jettySize=auto;html=1;entryX=1;entryY=0.5;entryDx=0;entryDy=0;" parent="1" source="IyW-SBipxfJ-EqF8rfU7-32" target="IyW-SBipxfJ-EqF8rfU7-3" edge="1">
          <mxGeometry relative="1" as="geometry" />
        </mxCell>
        <mxCell id="IyW-SBipxfJ-EqF8rfU7-32" value="DS18B20" style="rounded=0;whiteSpace=wrap;html=1;" parent="1" vertex="1">
          <mxGeometry x="550" y="60" width="60" height="70" as="geometry" />
        </mxCell>
        <mxCell id="IyW-SBipxfJ-EqF8rfU7-47" style="edgeStyle=orthogonalEdgeStyle;rounded=0;orthogonalLoop=1;jettySize=auto;html=1;" parent="1" source="IyW-SBipxfJ-EqF8rfU7-46" target="IyW-SBipxfJ-EqF8rfU7-32" edge="1">
          <mxGeometry relative="1" as="geometry" />
        </mxCell>
        <mxCell id="IyW-SBipxfJ-EqF8rfU7-48" style="edgeStyle=orthogonalEdgeStyle;rounded=0;orthogonalLoop=1;jettySize=auto;html=1;entryX=0.5;entryY=0;entryDx=0;entryDy=0;" parent="1" source="IyW-SBipxfJ-EqF8rfU7-46" target="IyW-SBipxfJ-EqF8rfU7-3" edge="1">
          <mxGeometry relative="1" as="geometry" />
        </mxCell>
        <mxCell id="IyW-SBipxfJ-EqF8rfU7-46" value="Power" style="rounded=0;whiteSpace=wrap;html=1;" parent="1" vertex="1">
          <mxGeometry x="465" y="-30" width="150" height="50" as="geometry" />
        </mxCell>
        <mxCell id="IyW-SBipxfJ-EqF8rfU7-57" value="&lt;br&gt;&lt;br&gt;&lt;br&gt;&lt;br&gt;&lt;br&gt;&lt;br&gt;&lt;br&gt;&lt;br&gt;&lt;br&gt;&lt;br&gt;&lt;br&gt;&lt;span style=&quot;white-space: pre;&quot;&gt; &lt;/span&gt;&lt;span style=&quot;white-space: pre;&quot;&gt; &lt;/span&gt;&lt;br&gt;&lt;span style=&quot;white-space: pre;&quot;&gt; &lt;/span&gt;&lt;span style=&quot;white-space: pre;&quot;&gt; &lt;/span&gt;&lt;span style=&quot;white-space: pre;&quot;&gt; &lt;/span&gt;Sensor Node" style="rounded=1;whiteSpace=wrap;html=1;" parent="1" vertex="1">
          <mxGeometry x="425" y="400" width="220" height="195" as="geometry" />
        </mxCell>
        <mxCell id="IyW-SBipxfJ-EqF8rfU7-58" value="ESP32" style="rounded=0;whiteSpace=wrap;html=1;" parent="1" vertex="1">
          <mxGeometry x="460" y="500" width="65" height="70" as="geometry" />
        </mxCell>
        <mxCell id="IyW-SBipxfJ-EqF8rfU7-59" style="edgeStyle=orthogonalEdgeStyle;rounded=0;orthogonalLoop=1;jettySize=auto;html=1;entryX=1;entryY=0.5;entryDx=0;entryDy=0;" parent="1" source="IyW-SBipxfJ-EqF8rfU7-60" target="IyW-SBipxfJ-EqF8rfU7-58" edge="1">
          <mxGeometry relative="1" as="geometry" />
        </mxCell>
        <mxCell id="IyW-SBipxfJ-EqF8rfU7-60" value="DS18B20" style="rounded=0;whiteSpace=wrap;html=1;" parent="1" vertex="1">
          <mxGeometry x="550" y="500" width="60" height="70" as="geometry" />
        </mxCell>
        <mxCell id="IyW-SBipxfJ-EqF8rfU7-61" style="edgeStyle=orthogonalEdgeStyle;rounded=0;orthogonalLoop=1;jettySize=auto;html=1;" parent="1" source="IyW-SBipxfJ-EqF8rfU7-63" target="IyW-SBipxfJ-EqF8rfU7-60" edge="1">
          <mxGeometry relative="1" as="geometry" />
        </mxCell>
        <mxCell id="IyW-SBipxfJ-EqF8rfU7-62" style="edgeStyle=orthogonalEdgeStyle;rounded=0;orthogonalLoop=1;jettySize=auto;html=1;entryX=0.5;entryY=0;entryDx=0;entryDy=0;" parent="1" source="IyW-SBipxfJ-EqF8rfU7-63" target="IyW-SBipxfJ-EqF8rfU7-58" edge="1">
          <mxGeometry relative="1" as="geometry" />
        </mxCell>
        <mxCell id="IyW-SBipxfJ-EqF8rfU7-63" value="Power" style="rounded=0;whiteSpace=wrap;html=1;" parent="1" vertex="1">
          <mxGeometry x="465" y="410" width="150" height="50" as="geometry" />
        </mxCell>
        <mxCell id="IyW-SBipxfJ-EqF8rfU7-66" value="&lt;br&gt;&lt;br&gt;&lt;br&gt;&lt;br&gt;&lt;br&gt;&lt;br&gt;&lt;br&gt;&lt;br&gt;&lt;span style=&quot;white-space: pre;&quot;&gt; &lt;/span&gt;&amp;nbsp; &amp;nbsp;&lt;span style=&quot;white-space: pre;&quot;&gt; &lt;/span&gt;&lt;span style=&quot;white-space: pre;&quot;&gt; &lt;/span&gt;Gateway" style="rounded=1;whiteSpace=wrap;html=1;" parent="1" vertex="1">
          <mxGeometry x="140" y="220" width="150" height="127.5" as="geometry" />
        </mxCell>
        <mxCell id="IyW-SBipxfJ-EqF8rfU7-67" value="ESP32" style="rounded=0;whiteSpace=wrap;html=1;" parent="1" vertex="1">
          <mxGeometry x="146.87" y="250" width="60" height="70" as="geometry" />
        </mxCell>
        <mxCell id="IyW-SBipxfJ-EqF8rfU7-72" value="" style="edgeStyle=orthogonalEdgeStyle;rounded=0;orthogonalLoop=1;jettySize=auto;html=1;" parent="1" source="IyW-SBipxfJ-EqF8rfU7-68" target="IyW-SBipxfJ-EqF8rfU7-67" edge="1">
          <mxGeometry relative="1" as="geometry" />
        </mxCell>
        <mxCell id="urhH8CZF4CywOij-O50m-8" value="" style="edgeStyle=orthogonalEdgeStyle;rounded=0;orthogonalLoop=1;jettySize=auto;html=1;" parent="1" source="IyW-SBipxfJ-EqF8rfU7-68" target="IyW-SBipxfJ-EqF8rfU7-67" edge="1">
          <mxGeometry relative="1" as="geometry" />
        </mxCell>
        <mxCell id="IyW-SBipxfJ-EqF8rfU7-68" value="Power" style="rounded=0;whiteSpace=wrap;html=1;" parent="1" vertex="1">
          <mxGeometry x="230" y="260" width="50" height="50" as="geometry" />
        </mxCell>
        <mxCell id="urhH8CZF4CywOij-O50m-3" value="" style="shape=image;verticalLabelPosition=bottom;labelBackgroundColor=default;verticalAlign=top;aspect=fixed;imageAspect=0;image=https://embetronicx.com/wp-content/uploads/2017/07/Bluetooth-Low-Energy-BLE-Introduction-1200x1200.png;" parent="1" vertex="1">
          <mxGeometry x="320" y="130" width="40" height="40" as="geometry" />
        </mxCell>
        <mxCell id="urhH8CZF4CywOij-O50m-7" value="" style="shape=image;verticalLabelPosition=bottom;labelBackgroundColor=default;verticalAlign=top;aspect=fixed;imageAspect=0;image=https://embetronicx.com/wp-content/uploads/2017/07/Bluetooth-Low-Energy-BLE-Introduction-1200x1200.png;" parent="1" vertex="1">
          <mxGeometry x="350" y="380" width="40" height="40" as="geometry" />
        </mxCell>
        <mxCell id="aDcIAIFk6YRATUNbwxnY-2" value="" style="image;html=1;image=img/lib/clip_art/networking/Wireless_Router_N_128x128.png" vertex="1" parent="1">
          <mxGeometry x="-100" y="240" width="80" height="80" as="geometry" />
        </mxCell>
        <mxCell id="aDcIAIFk6YRATUNbwxnY-4" value="Thingspeak" style="ellipse;shape=cloud;whiteSpace=wrap;html=1;" vertex="1" parent="1">
          <mxGeometry x="-350" y="-2.5" width="190" height="120" as="geometry" />
        </mxCell>
        <mxCell id="aDcIAIFk6YRATUNbwxnY-5" value="" style="shape=flexArrow;endArrow=classic;startArrow=classic;html=1;rounded=0;exitX=0.776;exitY=0.878;exitDx=0;exitDy=0;exitPerimeter=0;" edge="1" parent="1" source="aDcIAIFk6YRATUNbwxnY-4" target="aDcIAIFk6YRATUNbwxnY-2">
          <mxGeometry width="100" height="100" relative="1" as="geometry">
            <mxPoint x="-176" y="118.49999999999999" as="sourcePoint" />
            <mxPoint x="10" y="150" as="targetPoint" />
            <Array as="points" />
          </mxGeometry>
        </mxCell>
      </root>
    </mxGraphModel>
  </diagram>
</mxfile>
